<svg width="217" height="220" viewBox="0 0 217 220" fill="none" xmlns="http://www.w3.org/2000/svg">
<style>

@keyframes blink {
  from {
    opacity: 0.3
  }  
  to {
    opacity: 1
  }
}
.blink {
    animation: blink 3s ease-in-out infinite-alternate;
}
</style>
<g class="blink">
    <path d="M196.227 27.0502V44.5669L128.057 69.3049L132.449 50.1942L196.227 27.0502Z" fill="white"/>
    <path d="M196.227 44.567V27.0503L142.268 7.47095L138.553 23.6389L196.227 44.567Z" fill="white"/>
    <path d="M20.566 73.2812V55.7645L84.344 32.6205L79.9525 51.7312L20.566 73.2812Z" fill="white"/>
    <path d="M20.566 55.7645V73.2812L70.8093 91.5161L74.5246 75.3482L20.566 55.7645Z" fill="white"/>
    <path d="M108.396 6.37609L90.8303 82.8147L108.396 76.443L125.962 0L108.396 6.37609Z" fill="white"/>
    <path d="M3.01389 131.977V219.63L213.986 143.073V55.4198L3.01389 131.977ZM73.3379 176.579L55.7568 182.956V178.573L49.8983 180.699V176.316L44.0348 178.442V182.824L38.1759 184.959V189.341L20.5949 195.723V143.13L38.1759 136.754V167.432L44.0348 165.307V160.924L49.8983 158.794V163.177L55.7568 161.043V130.364L73.3379 123.983V176.579ZM134.871 119.166L117.29 125.552V160.613L99.7093 167.003V131.941L82.1286 138.318V120.788L134.871 101.648V119.166ZM196.405 96.8537L161.243 109.608V118.373L187.615 108.806V126.336L161.243 135.903V144.669L143.662 151.046V98.4533L196.405 79.3099V96.8537Z" fill="white"/>
    </g>
    </svg>
    